<?xml version="1.0" encoding="UTF-8"?>
<svg id="Layer_1" xmlns="http://www.w3.org/2000/svg" version="1.1" viewBox="0 0 109 40">
  <!-- Generator: Adobe Illustrator 30.4.0, SVG Export Plug-In . SVG Version: 2.1.4 Build 226)  -->
  <defs>
    <style>
      .st0 {
        fill: #ed2d31;
      }

      .st0, .st1, .st2, .st3, .st4 {
        fill-rule: evenodd;
      }

      .st1 {
        fill: #f79b42;
      }

      .st2 {
        fill: #ec1c24;
      }

      .st3 {
        fill: #f6921e;
      }

      .st4 {
        fill: #003974;
      }
    </style>
  </defs>
  <path class="st4" d="M35.78,2.13l-.82,8.33c-7.9-4.06-19.1-3.05-23.03,3.81-3.36,5.87-.99,13.8,5,16.86,5.98,3.07,14.63,2.12,17.62-6.74l-.42-.06h-12.81v-7.18h16.44v.51l2.33-.81,1.35,8.39-16.65,14.72h-6.32c-10.25-.94-16.02-6.81-17.82-13.99-1.82-7.24.16-16.04,6.29-20.71C14.36-.4,26.56-.62,35.78,2.13"/>
  <polygon class="st0" points="46.22 2.42 69.47 39.96 58.22 39.96 46.22 20.12 34.22 39.96 22.98 39.97 46.22 2.42"/>
  <polygon class="st1" points="62.67 2.42 85.91 39.96 74.67 39.96 62.67 20.12 50.67 39.96 39.43 39.97 62.67 2.42"/>
  <path class="st4" d="M94.58,7.95h-9.44v8.14h9.44c2.07,0,3.75-1.68,3.75-3.73v-.68c0-2.05-1.69-3.73-3.75-3.73M91.73,22.99h-5.68v16.96h-10.01V.03h20.19c6.35,0,11.55,5.16,11.55,11.48,0,4.51-2.65,8.44-6.49,10.31l7.71,18.14h-10.58l-6.69-16.97Z"/>
  <polygon class="st2" points="46.22 2.42 69.47 39.96 58.22 39.96 46.22 20.12 34.22 39.96 22.98 39.97 46.22 2.42"/>
  <polygon class="st3" points="62.67 2.42 85.91 39.96 74.67 39.96 62.67 20.12 50.67 39.96 39.43 39.97 62.67 2.42"/>
</svg>